<svg width="22" height="24" viewBox="0 0 22 24" fill="none" xmlns="http://www.w3.org/2000/svg">
<path d="M7.2374 23C3.25993 21.5499 -2.66963 16.5864 5.43184 8.33333C9.76519 3.46102 9.22614 1.41431 8.41494 1C11.2934 2.22222 16.7676 5.92203 15.6372 10.9435C16.1344 10.9435 17.2229 10.5209 17.5997 8.83051C20.452 12.0829 23.8172 19.4701 14.4596 23C16.0559 21.9642 18.1964 18.8486 13.9886 14.6723C13.4914 14.1337 12.4029 12.6339 12.0261 10.9435C10.7439 11.4821 8.30504 13.6282 8.80746 17.904C8.41784 18.0685 7.48679 17.7839 6.85885 15.3485C6.63323 15.7901 3.24657 18.8641 7.2374 23Z" fill="url(#paint0_linear)"/>
<path d="M7.2374 23C3.25993 21.5499 -2.66963 16.5864 5.43184 8.33333C9.76519 3.46102 9.22614 1.41431 8.41494 1C11.2934 2.22222 16.7676 5.92203 15.6372 10.9435C16.1344 10.9435 17.2229 10.5209 17.5997 8.83051C20.452 12.0829 23.8172 19.4701 14.4596 23C16.0559 21.9642 18.1964 18.8486 13.9886 14.6723C13.4914 14.1337 12.4029 12.6339 12.0261 10.9435C10.7439 11.4821 8.30504 13.6282 8.80746 17.904C8.41494 18.0697 7.47291 17.7797 6.84489 15.2938C7.2374 15.2938 2.91975 18.5254 7.2374 23Z" stroke="#FF2B51" stroke-width="1.7" stroke-linejoin="round"/>
<defs>
<linearGradient id="paint0_linear" x1="11.0001" y1="1" x2="10.5577" y2="24.5023" gradientUnits="userSpaceOnUse">
<stop stop-color="#FF2B51"/>
<stop offset="1" stop-color="#FFBD15" stop-opacity="0.34"/>
</linearGradient>
</defs>
</svg>
