<svg width="25" height="25" viewBox="0 0 25 25" fill="none" xmlns="http://www.w3.org/2000/svg">
<path d="M14.3446 22.8906C14.8915 22.3438 14.8368 21.5234 14.3446 20.9766L7.72742 14.6875H23.4774C24.1884 14.6875 24.7899 14.1406 24.7899 13.375V11.625C24.7899 10.9141 24.1884 10.3125 23.4774 10.3125H7.72742L14.3446 4.07812C14.8368 3.53125 14.8915 2.71094 14.3446 2.16406L13.1415 0.960938C12.6493 0.46875 11.7743 0.46875 11.2821 0.960938L0.672736 11.625C0.125861 12.1172 0.125861 12.9375 0.672736 13.4297L11.2821 24.0938C11.7743 24.5859 12.5946 24.5859 13.1415 24.0938L14.3446 22.8906Z" fill="#FF2B51"/>
</svg>
